<?xml version="1.0"?>
<svg width="46" height="46" xmlns="http://www.w3.org/2000/svg" xmlns:svg="http://www.w3.org/2000/svg">
 <g>
  <title>Layer 1</title>
  <circle stroke="#ffffff" id="svg_20" r="20.705261" cy="22.5" cx="22.5" stroke-linecap="null" stroke-linejoin="null" stroke-dasharray="null" stroke-width="0" fill="#707070"/>
  <g id="svg_2">
   <path id="svg_3" fill="#ffffff" d="m23,0c-12.702,0 -23,10.298 -23,23s10.298,23 23,23s23,-10.298 23,-23s-10.298,-23 -23,-23zm0,42c-10.493,0 -19,-8.507 -19,-19s8.507,-19 19,-19s19,8.507 19,19s-8.507,19 -19,19zm7.305,-25.597l-0.707,-0.707c-0.586,-0.585 -1.537,-0.585 -2.123,0l-4.475,4.475l-4.475,-4.475c-0.586,-0.585 -1.536,-0.585 -2.121,0l-0.708,0.707c-0.585,0.586 -0.585,1.536 0,2.122l4.475,4.475l-4.475,4.475c-0.585,0.586 -0.585,1.536 0,2.121l0.708,0.709c0.585,0.584 1.535,0.584 2.121,0l4.475,-4.476l4.475,4.476c0.586,0.584 1.537,0.584 2.123,0l0.707,-0.709c0.584,-0.585 0.584,-1.535 0,-2.121l-4.476,-4.475l4.476,-4.475c0.584,-0.586 0.584,-1.536 0,-2.122z"/>
  </g>
  <rect stroke="#000000" id="svg_19" height="45.695366" width="50.000001" y="-118" x="9" stroke-linecap="null" stroke-linejoin="null" stroke-dasharray="null" stroke-width="0" fill="#707070"/>
  <g id="svg_4"/>
  <g id="svg_5"/>
  <g id="svg_6"/>
  <g id="svg_7"/>
  <g id="svg_8"/>
  <g id="svg_9"/>
  <g id="svg_10"/>
  <g id="svg_11"/>
  <g id="svg_12"/>
  <g id="svg_13"/>
  <g id="svg_14"/>
  <g id="svg_15"/>
  <g id="svg_16"/>
  <g id="svg_17"/>
  <g id="svg_18"/>
  <path id="svg_24" d="m-103,-15l19,0" stroke-linecap="null" stroke-linejoin="null" stroke-dasharray="null" stroke-width="4" stroke="#ffffff" fill="none"/>
 </g>

</svg>