<?xml version="1.0"?>
<svg width="298.465" height="298.465" xmlns="http://www.w3.org/2000/svg" xmlns:svg="http://www.w3.org/2000/svg">
 <g>
  <title>Layer 1</title>
  <g transform="rotate(180 149.2324981689453,149.2324981689453) " id="svg_1">
   <g id="svg_2">
    <path id="svg_3" fill="#888888" d="m162.812,265.693l-116.459,-116.464l116.459,-116.456c3.627,-3.625 5.625,-8.446 5.625,-13.574s-1.998,-9.949 -5.625,-13.573c-3.627,-3.628 -8.451,-5.625 -13.579,-5.625c-5.128,0 -9.948,1.997 -13.57,5.624l-130.037,130.031c-3.575,3.574 -5.626,8.521 -5.626,13.573s2.051,10 5.626,13.573l130.037,130.038c3.623,3.627 8.443,5.625 13.575,5.625c5.13,0 9.95,-1.998 13.573,-5.625c3.629,-3.625 5.627,-8.445 5.627,-13.574s-1.999,-9.95 -5.626,-13.573z"/>
    <path id="svg_4" fill="#888888" d="m292.84,265.693l-116.453,-116.464l116.453,-116.457c3.627,-3.625 5.625,-8.446 5.625,-13.574s-1.998,-9.949 -5.625,-13.573c-3.627,-3.628 -8.451,-5.625 -13.578,-5.625c-5.129,0 -9.947,1.997 -13.57,5.624l-130.029,130.032c-3.627,3.625 -5.625,8.445 -5.625,13.574c0,5.127 1.998,9.948 5.625,13.573l130.028,130.037c3.623,3.627 8.443,5.625 13.574,5.625c5.125,0 9.947,-1.998 13.574,-5.625c3.627,-3.625 5.625,-8.445 5.625,-13.574s-1.997,-9.95 -5.624,-13.573z"/>
   </g>
  </g>
  <g id="svg_5"/>
  <g id="svg_6"/>
  <g id="svg_7"/>
  <g id="svg_8"/>
  <g id="svg_9"/>
  <g id="svg_10"/>
  <g id="svg_11"/>
  <g id="svg_12"/>
  <g id="svg_13"/>
  <g id="svg_14"/>
  <g id="svg_15"/>
  <g id="svg_16"/>
  <g id="svg_17"/>
  <g id="svg_18"/>
  <g id="svg_19"/>
 </g>
</svg>